<?xml version="1.0" encoding="UTF-8" standalone="no"?>
<!DOCTYPE svg PUBLIC "-//W3C//DTD SVG 1.1//EN" "http://www.w3.org/Graphics/SVG/1.1/DTD/svg11.dtd">
<svg xmlns="http://www.w3.org/2000/svg" version="1.1" viewBox="0.00 0.00 1280.00 720.00">
<g stroke-width="2.00" fill="none" stroke-linecap="butt">
<path stroke="#808080" vector-effect="non-scaling-stroke" d="
  M 636.62 408.05
  L 636.62 162.67
  A 4.08 4.08 0.0 0 0 632.54 158.59
  L 580.54 158.59
  A 66.77 66.08 90.0 0 0 514.46 225.36
  L 514.46 345.36
  A 66.77 66.08 -90.0 0 0 580.54 412.13
  L 632.54 412.13
  A 4.08 4.08 0.0 0 0 636.62 408.05"
/>
<path stroke="#808080" vector-effect="non-scaling-stroke" d="
  M 662.19 160.60
  L 662.19 410.04
  A 1.99 1.99 0.0 0 0 664.18 412.03
  L 701.31 412.03
  A 66.10 66.09 -0.0 0 0 767.41 345.94
  L 767.41 224.70
  A 66.10 66.09 -0.0 0 0 701.31 158.61
  L 664.18 158.61
  A 1.99 1.99 0.0 0 0 662.19 160.60"
/>
<path stroke="#808080" vector-effect="non-scaling-stroke" d="
  M 827.23 466.38
  A 16.76 16.76 0.0 0 0 810.47 449.62
  A 16.76 16.76 0.0 0 0 793.71 466.38
  A 16.76 16.76 0.0 0 0 810.47 483.14
  A 16.76 16.76 0.0 0 0 827.23 466.38"
/>
<path stroke="#808080" vector-effect="non-scaling-stroke" d="
  M 460.98 482.07
  A 0.33 0.33 0.0 0 0 461.31 481.75
  L 461.67 462.79
  A 0.33 0.33 0.0 0 1 462.27 462.60
  L 476.44 481.93
  A 0.33 0.33 0.0 0 0 476.70 482.06
  L 482.35 482.15
  A 0.33 0.33 0.0 0 0 482.68 481.82
  L 482.68 451.05
  A 0.33 0.33 0.0 0 0 482.35 450.72
  L 477.01 450.66
  A 0.33 0.33 0.0 0 0 476.67 450.99
  L 476.29 469.84
  A 0.33 0.33 0.0 0 1 475.70 470.03
  L 461.44 450.89
  A 0.33 0.33 0.0 0 0 461.18 450.76
  L 455.04 450.61
  A 0.33 0.33 0.0 0 0 454.70 450.94
  L 454.70 481.78
  A 0.33 0.33 0.0 0 0 455.03 482.11
  L 460.98 482.07"
/>
<path stroke="#808080" vector-effect="non-scaling-stroke" d="
  M 514.12 451.14
  A 0.47 0.47 0.0 0 0 513.65 450.67
  L 507.17 450.67
  A 0.47 0.47 0.0 0 0 506.70 451.14
  L 506.70 481.64
  A 0.47 0.47 0.0 0 0 507.17 482.11
  L 513.65 482.11
  A 0.47 0.47 0.0 0 0 514.12 481.64
  L 514.12 451.14"
/>
<path stroke="#808080" vector-effect="non-scaling-stroke" d="
  M 558.98 469.53
  A 0.32 0.32 0.0 0 1 558.40 469.72
  L 544.53 450.88
  A 0.32 0.32 0.0 0 0 544.28 450.75
  L 538.27 450.65
  A 0.32 0.32 0.0 0 0 537.94 450.97
  L 537.94 481.82
  A 0.32 0.32 0.0 0 0 538.26 482.14
  L 543.69 482.07
  A 0.32 0.32 0.0 0 0 544.01 481.76
  L 544.33 462.67
  A 0.32 0.32 0.0 0 1 544.91 462.48
  L 559.39 481.94
  A 0.32 0.32 0.0 0 0 559.64 482.07
  L 565.69 482.13
  A 0.32 0.32 0.0 0 0 566.01 481.81
  L 566.02 451.03
  A 0.32 0.32 0.0 0 0 565.70 450.71
  L 559.64 450.67
  A 0.32 0.32 0.0 0 0 559.31 450.99
  L 558.98 469.53"
/>
<path stroke="#808080" vector-effect="non-scaling-stroke" d="
  M 598.22 457.30
  A 0.47 0.47 0.0 0 1 598.69 457.77
  L 598.68 481.64
  A 0.47 0.47 0.0 0 0 599.15 482.11
  L 604.83 482.12
  A 0.47 0.47 0.0 0 0 605.30 481.65
  L 605.33 457.75
  A 0.47 0.47 0.0 0 1 605.80 457.28
  L 614.96 457.32
  A 0.47 0.47 0.0 0 0 615.44 456.85
  L 615.50 451.18
  A 0.47 0.47 0.0 0 0 615.03 450.70
  L 589.05 450.68
  A 0.47 0.47 0.0 0 0 588.58 451.15
  L 588.55 456.86
  A 0.47 0.47 0.0 0 0 589.02 457.33
  L 598.22 457.30"
/>
<path stroke="#808080" vector-effect="non-scaling-stroke" d="
  M 644.75 457.20
  A 0.51 0.51 0.0 0 1 645.26 456.69
  L 662.22 456.75
  A 0.51 0.51 0.0 0 0 662.74 456.22
  L 662.60 451.23
  A 0.51 0.51 0.0 0 0 662.09 450.73
  L 639.16 450.70
  A 0.51 0.51 0.0 0 0 638.65 451.21
  L 638.68 481.62
  A 0.51 0.51 0.0 0 0 639.19 482.13
  L 662.20 482.13
  A 0.51 0.51 0.0 0 0 662.70 481.62
  L 662.65 476.49
  A 0.51 0.51 0.0 0 0 662.14 475.98
  L 645.23 476.01
  A 0.51 0.51 0.0 0 1 644.72 475.48
  L 644.93 469.44
  A 0.51 0.51 0.0 0 1 645.43 468.95
  L 660.86 468.69
  A 0.51 0.51 0.0 0 0 661.36 468.18
  L 661.37 463.78
  A 0.51 0.51 0.0 0 0 660.86 463.27
  L 645.25 463.33
  A 0.51 0.51 0.0 0 1 644.74 462.82
  L 644.75 457.20"
/>
<path stroke="#808080" vector-effect="non-scaling-stroke" d="
  M 711.00 450.68
  A 0.34 0.34 0.0 0 0 710.65 451.02
  L 710.36 469.67
  A 0.34 0.34 0.0 0 1 709.74 469.87
  L 695.90 450.86
  A 0.34 0.34 0.0 0 0 695.63 450.72
  L 689.66 450.70
  A 0.34 0.34 0.0 0 0 689.32 451.04
  L 689.32 481.78
  A 0.34 0.34 0.0 0 0 689.66 482.12
  L 695.04 482.07
  A 0.34 0.34 0.0 0 0 695.38 481.74
  L 695.68 462.76
  A 0.34 0.34 0.0 0 1 696.30 462.56
  L 710.71 481.90
  A 0.34 0.34 0.0 0 0 710.98 482.03
  L 716.96 482.18
  A 0.34 0.34 0.0 0 0 717.31 481.84
  L 717.36 451.05
  A 0.34 0.34 0.0 0 0 717.02 450.71
  L 711.00 450.68"
/>
<path stroke="#808080" vector-effect="non-scaling-stroke" d="
  M 744.00 451.05
  L 744.00 481.77
  A 0.35 0.35 0.0 0 0 744.35 482.12
  L 756.93 482.12
  A 16.23 15.59 -0.0 0 0 773.16 466.53
  L 773.16 466.29
  A 16.23 15.59 0.0 0 0 756.93 450.70
  L 744.35 450.70
  A 0.35 0.35 0.0 0 0 744.00 451.05"
/>
<path stroke="#808080" vector-effect="non-scaling-stroke" d="
  M 718.81 516.19
  C 724.21 510.28 733.08 508.46 740.46 511.53
  C 743.72 512.88 746.52 515.74 749.00 518.34
  A 0.81 0.80 46.8 0 0 750.11 518.38
  L 758.33 511.06
  A 0.79 0.78 50.6 0 0 758.43 510.00
  Q 745.55 493.09 725.14 497.38
  C 715.45 499.42 707.23 506.87 703.37 515.89
  C 697.57 529.48 701.59 544.53 713.15 553.60
  Q 718.79 558.02 725.26 559.25
  Q 745.84 563.17 758.23 547.02
  A 0.87 0.86 -45.3 0 0 758.23 545.95
  C 755.94 543.02 753.17 540.80 750.08 538.58
  A 0.82 0.82 0.0 0 0 749.11 538.59
  Q 747.20 540.04 745.40 541.66
  C 739.24 547.24 731.68 548.25 724.18 544.44
  C 713.66 539.10 710.56 525.25 718.81 516.19"
/>
<path stroke="#808080" vector-effect="non-scaling-stroke" d="
  M 488.71 535.68
  C 492.33 536.69 495.60 538.06 494.43 542.41
  C 493.68 545.20 491.36 546.74 488.66 547.37
  Q 472.65 551.07 458.74 543.66
  A 1.14 1.13 29.1 0 0 457.22 544.09
  L 452.15 552.87
  A 0.65 0.65 0.0 0 0 452.43 553.77
  Q 467.37 560.78 483.20 559.40
  C 493.26 558.52 504.62 556.26 506.63 544.27
  Q 508.43 533.50 500.69 528.60
  C 492.27 523.27 480.59 522.20 471.06 519.95
  C 465.74 518.70 462.43 512.07 469.42 510.07
  Q 479.19 507.26 489.77 510.00
  Q 495.11 511.38 497.71 511.85
  A 0.88 0.88 0.0 0 0 498.70 511.28
  L 501.80 502.75
  A 0.76 0.75 -69.9 0 0 501.36 501.79
  C 489.01 497.09 471.68 494.88 460.07 502.84
  C 455.24 506.15 452.06 510.96 452.58 516.77
  C 453.44 526.56 464.05 530.55 472.25 532.01
  Q 481.43 533.63 488.71 535.68"
/>
<path stroke="#808080" vector-effect="non-scaling-stroke" d="
  M 573.68 539.09
  Q 573.52 538.71 573.37 538.22
  Q 567.94 520.50 562.45 502.79
  Q 561.81 500.75 560.88 498.72
  A 0.88 0.88 0.0 0 0 560.12 498.22
  L 552.33 497.93
  A 1.72 1.72 0.0 0 0 550.62 499.16
  L 538.66 539.75
  A 0.40 0.40 0.0 0 1 537.89 539.74
  L 526.84 498.96
  A 0.83 0.64 0.3 0 0 526.20 498.46
  Q 520.54 497.57 514.86 498.25
  A 0.74 0.74 0.0 0 0 514.23 499.18
  L 530.30 557.44
  A 0.83 0.82 -7.8 0 0 531.10 558.04
  L 544.47 558.04
  A 0.72 0.70 -81.8 0 0 545.15 557.52
  L 555.64 520.72
  A 0.42 0.42 0.0 0 1 556.45 520.72
  L 566.91 557.28
  A 0.68 0.66 81.9 0 0 567.55 557.77
  L 581.11 557.76
  Q 581.72 557.76 581.88 557.17
  L 597.99 499.39
  A 0.84 0.84 0.0 0 0 597.31 498.34
  Q 591.65 497.46 586.02 498.33
  A 0.87 0.85 2.5 0 0 585.32 498.96
  L 574.49 539.02
  A 0.43 0.43 0.0 0 1 573.68 539.09"
/>
<path stroke="#808080" vector-effect="non-scaling-stroke" d="
  M 785.15 521.98
  A 0.45 0.45 0.0 0 1 784.70 521.54
  L 784.43 498.64
  A 0.45 0.45 0.0 0 0 783.98 498.20
  L 773.22 498.17
  A 0.45 0.45 0.0 0 0 772.77 498.62
  L 772.59 557.60
  A 0.45 0.45 0.0 0 0 773.04 558.05
  L 784.27 558.08
  A 0.45 0.45 0.0 0 0 784.72 557.63
  L 784.71 535.13
  A 0.45 0.45 0.0 0 1 785.16 534.68
  L 812.15 534.68
  A 0.45 0.45 0.0 0 1 812.60 535.13
  L 812.62 557.59
  A 0.45 0.45 0.0 0 0 813.07 558.04
  L 824.36 558.09
  A 0.45 0.45 0.0 0 0 824.81 557.64
  L 824.53 499.02
  A 0.45 0.45 0.0 0 0 824.08 498.57
  L 813.23 498.52
  A 0.45 0.45 0.0 0 0 812.78 498.97
  L 812.58 521.54
  A 0.45 0.45 0.0 0 1 812.13 521.99
  L 785.15 521.98"
/>
<path stroke="#808080" vector-effect="non-scaling-stroke" d="
  M 626.60 498.53
  A 0.27 0.27 0.0 0 0 626.33 498.26
  L 613.61 498.26
  A 0.27 0.27 0.0 0 0 613.34 498.53
  L 613.34 557.79
  A 0.27 0.27 0.0 0 0 613.61 558.06
  L 626.33 558.06
  A 0.27 0.27 0.0 0 0 626.60 557.79
  L 626.60 498.53"
/>
<path stroke="#808080" vector-effect="non-scaling-stroke" d="
  M 672.72 511.87
  A 0.42 0.42 0.0 0 1 673.14 511.45
  L 691.01 511.45
  A 0.42 0.42 0.0 0 0 691.43 511.02
  L 691.15 498.61
  A 0.42 0.42 0.0 0 0 690.73 498.20
  L 641.76 498.38
  A 0.42 0.42 0.0 0 0 641.34 498.80
  L 641.35 511.04
  A 0.42 0.42 0.0 0 0 641.77 511.46
  L 659.59 511.46
  A 0.42 0.42 0.0 0 1 660.01 511.88
  L 660.01 557.64
  A 0.42 0.42 0.0 0 0 660.43 558.06
  L 672.32 558.05
  A 0.42 0.42 0.0 0 0 672.74 557.63
  L 672.72 511.87"
/>
<path stroke="#808080" vector-effect="non-scaling-stroke" d="
  M 616.03 390.76
  L 616.03 180.02
  A 0.68 0.68 0.0 0 0 615.35 179.34
  L 580.18 179.34
  A 45.75 45.23 90.0 0 0 534.95 225.09
  L 534.95 345.69
  A 45.75 45.23 -90.0 0 0 580.18 391.44
  L 615.35 391.44
  A 0.68 0.68 0.0 0 0 616.03 390.76"
/>
<path stroke="#808080" vector-effect="non-scaling-stroke" d="
  M 737.13 298.12
  A 25.39 25.39 0.0 0 0 711.74 272.73
  A 25.39 25.39 0.0 0 0 686.35 298.12
  A 25.39 25.39 0.0 0 0 711.74 323.51
  A 25.39 25.39 0.0 0 0 737.13 298.12"
/>
<path stroke="#808080" vector-effect="non-scaling-stroke" d="
  M 601.41 234.89
  A 23.72 23.72 0.0 0 0 577.69 211.17
  A 23.72 23.72 0.0 0 0 553.97 234.89
  A 23.72 23.72 0.0 0 0 577.69 258.61
  A 23.72 23.72 0.0 0 0 601.41 234.89"
/>
<path stroke="#808080" vector-effect="non-scaling-stroke" d="
  M 820.04 466.37
  A 9.60 9.60 0.0 0 0 810.44 456.77
  A 9.60 9.60 0.0 0 0 800.84 466.37
  A 9.60 9.60 0.0 0 0 810.44 475.97
  A 9.60 9.60 0.0 0 0 820.04 466.37"
/>
<path stroke="#808080" vector-effect="non-scaling-stroke" d="
  M 750.74 457.76
  L 750.62 474.83
  A 0.42 0.42 0.0 0 0 751.04 475.26
  L 756.69 475.30
  A 9.63 8.85 0.4 0 0 766.38 466.51
  L 766.38 466.29
  A 9.63 8.85 0.4 0 0 756.81 457.38
  L 751.16 457.34
  A 0.42 0.42 0.0 0 0 750.74 457.76"
/>
</g>
<path fill="#000000" d="
  M 0.00 0.00
  L 1280.00 0.00
  L 1280.00 720.00
  L 0.00 720.00
  L 0.00 0.00
  Z
  M 636.62 408.05
  L 636.62 162.67
  A 4.08 4.08 0.0 0 0 632.54 158.59
  L 580.54 158.59
  A 66.77 66.08 90.0 0 0 514.46 225.36
  L 514.46 345.36
  A 66.77 66.08 -90.0 0 0 580.54 412.13
  L 632.54 412.13
  A 4.08 4.08 0.0 0 0 636.62 408.05
  Z
  M 662.19 160.60
  L 662.19 410.04
  A 1.99 1.99 0.0 0 0 664.18 412.03
  L 701.31 412.03
  A 66.10 66.09 -0.0 0 0 767.41 345.94
  L 767.41 224.70
  A 66.10 66.09 -0.0 0 0 701.31 158.61
  L 664.18 158.61
  A 1.99 1.99 0.0 0 0 662.19 160.60
  Z
  M 827.23 466.38
  A 16.76 16.76 0.0 0 0 810.47 449.62
  A 16.76 16.76 0.0 0 0 793.71 466.38
  A 16.76 16.76 0.0 0 0 810.47 483.14
  A 16.76 16.76 0.0 0 0 827.23 466.38
  Z
  M 460.98 482.07
  A 0.33 0.33 0.0 0 0 461.31 481.75
  L 461.67 462.79
  A 0.33 0.33 0.0 0 1 462.27 462.60
  L 476.44 481.93
  A 0.33 0.33 0.0 0 0 476.70 482.06
  L 482.35 482.15
  A 0.33 0.33 0.0 0 0 482.68 481.82
  L 482.68 451.05
  A 0.33 0.33 0.0 0 0 482.35 450.72
  L 477.01 450.66
  A 0.33 0.33 0.0 0 0 476.67 450.99
  L 476.29 469.84
  A 0.33 0.33 0.0 0 1 475.70 470.03
  L 461.44 450.89
  A 0.33 0.33 0.0 0 0 461.18 450.76
  L 455.04 450.61
  A 0.33 0.33 0.0 0 0 454.70 450.94
  L 454.70 481.78
  A 0.33 0.33 0.0 0 0 455.03 482.11
  L 460.98 482.07
  Z
  M 514.12 451.14
  A 0.47 0.47 0.0 0 0 513.65 450.67
  L 507.17 450.67
  A 0.47 0.47 0.0 0 0 506.70 451.14
  L 506.70 481.64
  A 0.47 0.47 0.0 0 0 507.17 482.11
  L 513.65 482.11
  A 0.47 0.47 0.0 0 0 514.12 481.64
  L 514.12 451.14
  Z
  M 558.98 469.53
  A 0.32 0.32 0.0 0 1 558.40 469.72
  L 544.53 450.88
  A 0.32 0.32 0.0 0 0 544.28 450.75
  L 538.27 450.65
  A 0.32 0.32 0.0 0 0 537.94 450.97
  L 537.94 481.82
  A 0.32 0.32 0.0 0 0 538.26 482.14
  L 543.69 482.07
  A 0.32 0.32 0.0 0 0 544.01 481.76
  L 544.33 462.67
  A 0.32 0.32 0.0 0 1 544.91 462.48
  L 559.39 481.94
  A 0.32 0.32 0.0 0 0 559.64 482.07
  L 565.69 482.13
  A 0.32 0.32 0.0 0 0 566.01 481.81
  L 566.02 451.03
  A 0.32 0.32 0.0 0 0 565.70 450.71
  L 559.64 450.67
  A 0.32 0.32 0.0 0 0 559.31 450.99
  L 558.98 469.53
  Z
  M 598.22 457.30
  A 0.47 0.47 0.0 0 1 598.69 457.77
  L 598.68 481.64
  A 0.47 0.47 0.0 0 0 599.15 482.11
  L 604.83 482.12
  A 0.47 0.47 0.0 0 0 605.30 481.65
  L 605.33 457.75
  A 0.47 0.47 0.0 0 1 605.80 457.28
  L 614.96 457.32
  A 0.47 0.47 0.0 0 0 615.44 456.85
  L 615.50 451.18
  A 0.47 0.47 0.0 0 0 615.03 450.70
  L 589.05 450.68
  A 0.47 0.47 0.0 0 0 588.58 451.15
  L 588.55 456.86
  A 0.47 0.47 0.0 0 0 589.02 457.33
  L 598.22 457.30
  Z
  M 644.75 457.20
  A 0.51 0.51 0.0 0 1 645.26 456.69
  L 662.22 456.75
  A 0.51 0.51 0.0 0 0 662.74 456.22
  L 662.60 451.23
  A 0.51 0.51 0.0 0 0 662.09 450.73
  L 639.16 450.70
  A 0.51 0.51 0.0 0 0 638.65 451.21
  L 638.68 481.62
  A 0.51 0.51 0.0 0 0 639.19 482.13
  L 662.20 482.13
  A 0.51 0.51 0.0 0 0 662.70 481.62
  L 662.65 476.49
  A 0.51 0.51 0.0 0 0 662.14 475.98
  L 645.23 476.01
  A 0.51 0.51 0.0 0 1 644.72 475.48
  L 644.93 469.44
  A 0.51 0.51 0.0 0 1 645.43 468.95
  L 660.86 468.69
  A 0.51 0.51 0.0 0 0 661.36 468.18
  L 661.37 463.78
  A 0.51 0.51 0.0 0 0 660.86 463.27
  L 645.25 463.33
  A 0.51 0.51 0.0 0 1 644.74 462.82
  L 644.75 457.20
  Z
  M 711.00 450.68
  A 0.34 0.34 0.0 0 0 710.65 451.02
  L 710.36 469.67
  A 0.34 0.34 0.0 0 1 709.74 469.87
  L 695.90 450.86
  A 0.34 0.34 0.0 0 0 695.63 450.72
  L 689.66 450.70
  A 0.34 0.34 0.0 0 0 689.32 451.04
  L 689.32 481.78
  A 0.34 0.34 0.0 0 0 689.66 482.12
  L 695.04 482.07
  A 0.34 0.34 0.0 0 0 695.38 481.74
  L 695.68 462.76
  A 0.34 0.34 0.0 0 1 696.30 462.56
  L 710.71 481.90
  A 0.34 0.34 0.0 0 0 710.98 482.03
  L 716.96 482.18
  A 0.34 0.34 0.0 0 0 717.31 481.84
  L 717.36 451.05
  A 0.34 0.34 0.0 0 0 717.02 450.71
  L 711.00 450.68
  Z
  M 744.00 451.05
  L 744.00 481.77
  A 0.35 0.35 0.0 0 0 744.35 482.12
  L 756.93 482.12
  A 16.23 15.59 -0.0 0 0 773.16 466.53
  L 773.16 466.29
  A 16.23 15.59 0.0 0 0 756.93 450.70
  L 744.35 450.70
  A 0.35 0.35 0.0 0 0 744.00 451.05
  Z
  M 718.81 516.19
  C 724.21 510.28 733.08 508.46 740.46 511.53
  C 743.72 512.88 746.52 515.74 749.00 518.34
  A 0.81 0.80 46.8 0 0 750.11 518.38
  L 758.33 511.06
  A 0.79 0.78 50.6 0 0 758.43 510.00
  Q 745.55 493.09 725.14 497.38
  C 715.45 499.42 707.23 506.87 703.37 515.89
  C 697.57 529.48 701.59 544.53 713.15 553.60
  Q 718.79 558.02 725.26 559.25
  Q 745.84 563.17 758.23 547.02
  A 0.87 0.86 -45.3 0 0 758.23 545.95
  C 755.94 543.02 753.17 540.80 750.08 538.58
  A 0.82 0.82 0.0 0 0 749.11 538.59
  Q 747.20 540.04 745.40 541.66
  C 739.24 547.24 731.68 548.25 724.18 544.44
  C 713.66 539.10 710.56 525.25 718.81 516.19
  Z
  M 488.71 535.68
  C 492.33 536.69 495.60 538.06 494.43 542.41
  C 493.68 545.20 491.36 546.74 488.66 547.37
  Q 472.65 551.07 458.74 543.66
  A 1.14 1.13 29.1 0 0 457.22 544.09
  L 452.15 552.87
  A 0.65 0.65 0.0 0 0 452.43 553.77
  Q 467.37 560.78 483.20 559.40
  C 493.26 558.52 504.62 556.26 506.63 544.27
  Q 508.43 533.50 500.69 528.60
  C 492.27 523.27 480.59 522.20 471.06 519.95
  C 465.74 518.70 462.43 512.07 469.42 510.07
  Q 479.19 507.26 489.77 510.00
  Q 495.11 511.38 497.71 511.85
  A 0.88 0.88 0.0 0 0 498.70 511.28
  L 501.80 502.75
  A 0.76 0.75 -69.9 0 0 501.36 501.79
  C 489.01 497.09 471.68 494.88 460.07 502.84
  C 455.24 506.15 452.06 510.96 452.58 516.77
  C 453.44 526.56 464.05 530.55 472.25 532.01
  Q 481.43 533.63 488.71 535.68
  Z
  M 573.68 539.09
  Q 573.52 538.71 573.37 538.22
  Q 567.94 520.50 562.45 502.79
  Q 561.81 500.75 560.88 498.72
  A 0.88 0.88 0.0 0 0 560.12 498.22
  L 552.33 497.93
  A 1.72 1.72 0.0 0 0 550.62 499.16
  L 538.66 539.75
  A 0.40 0.40 0.0 0 1 537.89 539.74
  L 526.84 498.96
  A 0.83 0.64 0.3 0 0 526.20 498.46
  Q 520.54 497.57 514.86 498.25
  A 0.74 0.74 0.0 0 0 514.23 499.18
  L 530.30 557.44
  A 0.83 0.82 -7.8 0 0 531.10 558.04
  L 544.47 558.04
  A 0.72 0.70 -81.8 0 0 545.15 557.52
  L 555.64 520.72
  A 0.42 0.42 0.0 0 1 556.45 520.72
  L 566.91 557.28
  A 0.68 0.66 81.9 0 0 567.55 557.77
  L 581.11 557.76
  Q 581.72 557.76 581.88 557.17
  L 597.99 499.39
  A 0.84 0.84 0.0 0 0 597.31 498.34
  Q 591.65 497.46 586.02 498.33
  A 0.87 0.85 2.5 0 0 585.32 498.96
  L 574.49 539.02
  A 0.43 0.43 0.0 0 1 573.68 539.09
  Z
  M 785.15 521.98
  A 0.45 0.45 0.0 0 1 784.70 521.54
  L 784.43 498.64
  A 0.45 0.45 0.0 0 0 783.98 498.20
  L 773.22 498.17
  A 0.45 0.45 0.0 0 0 772.77 498.62
  L 772.59 557.60
  A 0.45 0.45 0.0 0 0 773.04 558.05
  L 784.27 558.08
  A 0.45 0.45 0.0 0 0 784.72 557.63
  L 784.71 535.13
  A 0.45 0.45 0.0 0 1 785.16 534.68
  L 812.15 534.68
  A 0.45 0.45 0.0 0 1 812.60 535.13
  L 812.62 557.59
  A 0.45 0.45 0.0 0 0 813.07 558.04
  L 824.36 558.09
  A 0.45 0.45 0.0 0 0 824.81 557.64
  L 824.53 499.02
  A 0.45 0.45 0.0 0 0 824.08 498.57
  L 813.23 498.52
  A 0.45 0.45 0.0 0 0 812.78 498.97
  L 812.58 521.54
  A 0.45 0.45 0.0 0 1 812.13 521.99
  L 785.15 521.98
  Z
  M 626.60 498.53
  A 0.27 0.27 0.0 0 0 626.33 498.26
  L 613.61 498.26
  A 0.27 0.27 0.0 0 0 613.34 498.53
  L 613.34 557.79
  A 0.27 0.27 0.0 0 0 613.61 558.06
  L 626.33 558.06
  A 0.27 0.27 0.0 0 0 626.60 557.79
  L 626.60 498.53
  Z
  M 672.72 511.87
  A 0.42 0.42 0.0 0 1 673.14 511.45
  L 691.01 511.45
  A 0.42 0.42 0.0 0 0 691.43 511.02
  L 691.15 498.61
  A 0.42 0.42 0.0 0 0 690.73 498.20
  L 641.76 498.38
  A 0.42 0.42 0.0 0 0 641.34 498.80
  L 641.35 511.04
  A 0.42 0.42 0.0 0 0 641.77 511.46
  L 659.59 511.46
  A 0.42 0.42 0.0 0 1 660.01 511.88
  L 660.01 557.64
  A 0.42 0.42 0.0 0 0 660.43 558.06
  L 672.32 558.05
  A 0.42 0.42 0.0 0 0 672.74 557.63
  L 672.72 511.87
  Z"
/>
<path fill="#ffffff" d="
  M 636.62 408.05
  A 4.08 4.08 0.0 0 1 632.54 412.13
  L 580.54 412.13
  A 66.77 66.08 90.0 0 1 514.46 345.36
  L 514.46 225.36
  A 66.77 66.08 90.0 0 1 580.54 158.59
  L 632.54 158.59
  A 4.08 4.08 0.0 0 1 636.62 162.67
  L 636.62 408.05
  Z
  M 616.03 390.76
  L 616.03 180.02
  A 0.68 0.68 0.0 0 0 615.35 179.34
  L 580.18 179.34
  A 45.75 45.23 90.0 0 0 534.95 225.09
  L 534.95 345.69
  A 45.75 45.23 -90.0 0 0 580.18 391.44
  L 615.35 391.44
  A 0.68 0.68 0.0 0 0 616.03 390.76
  Z"
/>
<path fill="#ffffff" d="
  M 662.19 160.60
  A 1.99 1.99 0.0 0 1 664.18 158.61
  L 701.31 158.61
  A 66.10 66.09 0.0 0 1 767.41 224.70
  L 767.41 345.94
  A 66.10 66.09 0.0 0 1 701.31 412.03
  L 664.18 412.03
  A 1.99 1.99 0.0 0 1 662.19 410.04
  L 662.19 160.60
  Z
  M 737.13 298.12
  A 25.39 25.39 0.0 0 0 711.74 272.73
  A 25.39 25.39 0.0 0 0 686.35 298.12
  A 25.39 25.39 0.0 0 0 711.74 323.51
  A 25.39 25.39 0.0 0 0 737.13 298.12
  Z"
/>
<path fill="#000000" d="
  M 616.03 390.76
  A 0.68 0.68 0.0 0 1 615.35 391.44
  L 580.18 391.44
  A 45.75 45.23 90.0 0 1 534.95 345.69
  L 534.95 225.09
  A 45.75 45.23 -90.0 0 1 580.18 179.34
  L 615.35 179.34
  A 0.68 0.68 0.0 0 1 616.03 180.02
  L 616.03 390.76
  Z
  M 601.41 234.89
  A 23.72 23.72 0.0 0 0 577.69 211.17
  A 23.72 23.72 0.0 0 0 553.97 234.89
  A 23.72 23.72 0.0 0 0 577.69 258.61
  A 23.72 23.72 0.0 0 0 601.41 234.89
  Z"
/>
<circle fill="#ffffff" cx="577.69" cy="234.89" r="23.72"/>
<circle fill="#000000" cx="711.74" cy="298.12" r="25.39"/>
<path fill="#ffffff" d="
  M 827.23 466.38
  A 16.76 16.76 0.0 0 1 810.47 483.14
  A 16.76 16.76 0.0 0 1 793.71 466.38
  A 16.76 16.76 0.0 0 1 810.47 449.62
  A 16.76 16.76 0.0 0 1 827.23 466.38
  Z
  M 820.04 466.37
  A 9.60 9.60 0.0 0 0 810.44 456.77
  A 9.60 9.60 0.0 0 0 800.84 466.37
  A 9.60 9.60 0.0 0 0 810.44 475.97
  A 9.60 9.60 0.0 0 0 820.04 466.37
  Z"
/>
<path fill="#ffffff" d="
  M 460.98 482.07
  L 455.03 482.11
  A 0.33 0.33 0.0 0 1 454.70 481.78
  L 454.70 450.94
  A 0.33 0.33 0.0 0 1 455.04 450.61
  L 461.18 450.76
  A 0.33 0.33 0.0 0 1 461.44 450.89
  L 475.70 470.03
  A 0.33 0.33 0.0 0 0 476.29 469.84
  L 476.67 450.99
  A 0.33 0.33 0.0 0 1 477.01 450.66
  L 482.35 450.72
  A 0.33 0.33 0.0 0 1 482.68 451.05
  L 482.68 481.82
  A 0.33 0.33 0.0 0 1 482.35 482.15
  L 476.70 482.06
  A 0.33 0.33 0.0 0 1 476.44 481.93
  L 462.27 462.60
  A 0.33 0.33 0.0 0 0 461.67 462.79
  L 461.31 481.75
  A 0.33 0.33 0.0 0 1 460.98 482.07
  Z"
/>
<rect fill="#ffffff" x="506.70" y="450.67" width="7.42" height="31.44" rx="0.47"/>
<path fill="#ffffff" d="
  M 558.98 469.53
  L 559.31 450.99
  A 0.32 0.32 0.0 0 1 559.64 450.67
  L 565.70 450.71
  A 0.32 0.32 0.0 0 1 566.02 451.03
  L 566.01 481.81
  A 0.32 0.32 0.0 0 1 565.69 482.13
  L 559.64 482.07
  A 0.32 0.32 0.0 0 1 559.39 481.94
  L 544.91 462.48
  A 0.32 0.32 0.0 0 0 544.33 462.67
  L 544.01 481.76
  A 0.32 0.32 0.0 0 1 543.69 482.07
  L 538.26 482.14
  A 0.32 0.32 0.0 0 1 537.94 481.82
  L 537.94 450.97
  A 0.32 0.32 0.0 0 1 538.27 450.65
  L 544.28 450.75
  A 0.32 0.32 0.0 0 1 544.53 450.88
  L 558.40 469.72
  A 0.32 0.32 0.0 0 0 558.98 469.53
  Z"
/>
<path fill="#ffffff" d="
  M 598.22 457.30
  L 589.02 457.33
  A 0.47 0.47 0.0 0 1 588.55 456.86
  L 588.58 451.15
  A 0.47 0.47 0.0 0 1 589.05 450.68
  L 615.03 450.70
  A 0.47 0.47 0.0 0 1 615.50 451.18
  L 615.44 456.85
  A 0.47 0.47 0.0 0 1 614.96 457.32
  L 605.80 457.28
  A 0.47 0.47 0.0 0 0 605.33 457.75
  L 605.30 481.65
  A 0.47 0.47 0.0 0 1 604.83 482.12
  L 599.15 482.11
  A 0.47 0.47 0.0 0 1 598.68 481.64
  L 598.69 457.77
  A 0.47 0.47 0.0 0 0 598.22 457.30
  Z"
/>
<path fill="#ffffff" d="
  M 644.75 457.20
  L 644.74 462.82
  A 0.51 0.51 0.0 0 0 645.25 463.33
  L 660.86 463.27
  A 0.51 0.51 0.0 0 1 661.37 463.78
  L 661.36 468.18
  A 0.51 0.51 0.0 0 1 660.86 468.69
  L 645.43 468.95
  A 0.51 0.51 0.0 0 0 644.93 469.44
  L 644.72 475.48
  A 0.51 0.51 0.0 0 0 645.23 476.01
  L 662.14 475.98
  A 0.51 0.51 0.0 0 1 662.65 476.49
  L 662.70 481.62
  A 0.51 0.51 0.0 0 1 662.20 482.13
  L 639.19 482.13
  A 0.51 0.51 0.0 0 1 638.68 481.62
  L 638.65 451.21
  A 0.51 0.51 0.0 0 1 639.16 450.70
  L 662.09 450.73
  A 0.51 0.51 0.0 0 1 662.60 451.23
  L 662.74 456.22
  A 0.51 0.51 0.0 0 1 662.22 456.75
  L 645.26 456.69
  A 0.51 0.51 0.0 0 0 644.75 457.20
  Z"
/>
<path fill="#ffffff" d="
  M 711.00 450.68
  L 717.02 450.71
  A 0.34 0.34 0.0 0 1 717.36 451.05
  L 717.31 481.84
  A 0.34 0.34 0.0 0 1 716.96 482.18
  L 710.98 482.03
  A 0.34 0.34 0.0 0 1 710.71 481.90
  L 696.30 462.56
  A 0.34 0.34 0.0 0 0 695.68 462.76
  L 695.38 481.74
  A 0.34 0.34 0.0 0 1 695.04 482.07
  L 689.66 482.12
  A 0.34 0.34 0.0 0 1 689.32 481.78
  L 689.32 451.04
  A 0.34 0.34 0.0 0 1 689.66 450.70
  L 695.63 450.72
  A 0.34 0.34 0.0 0 1 695.90 450.86
  L 709.74 469.87
  A 0.34 0.34 0.0 0 0 710.36 469.67
  L 710.65 451.02
  A 0.34 0.34 0.0 0 1 711.00 450.68
  Z"
/>
<path fill="#ffffff" d="
  M 744.00 451.05
  A 0.35 0.35 0.0 0 1 744.35 450.70
  L 756.93 450.70
  A 16.23 15.59 0.0 0 1 773.16 466.29
  L 773.16 466.53
  A 16.23 15.59 0.0 0 1 756.93 482.12
  L 744.35 482.12
  A 0.35 0.35 0.0 0 1 744.00 481.77
  L 744.00 451.05
  Z
  M 750.74 457.76
  L 750.62 474.83
  A 0.42 0.42 0.0 0 0 751.04 475.26
  L 756.69 475.30
  A 9.63 8.85 0.4 0 0 766.38 466.51
  L 766.38 466.29
  A 9.63 8.85 0.4 0 0 756.81 457.38
  L 751.16 457.34
  A 0.42 0.42 0.0 0 0 750.74 457.76
  Z"
/>
<circle fill="#000000" cx="810.44" cy="466.37" r="9.60"/>
<path fill="#000000" d="
  M 750.74 457.76
  A 0.42 0.42 0.0 0 1 751.16 457.34
  L 756.81 457.38
  A 9.63 8.85 0.4 0 1 766.38 466.29
  L 766.38 466.51
  A 9.63 8.85 0.4 0 1 756.69 475.30
  L 751.04 475.26
  A 0.42 0.42 0.0 0 1 750.62 474.83
  L 750.74 457.76
  Z"
/>
<path fill="#ffffff" d="
  M 718.81 516.19
  C 710.56 525.25 713.66 539.10 724.18 544.44
  C 731.68 548.25 739.24 547.24 745.40 541.66
  Q 747.20 540.04 749.11 538.59
  A 0.82 0.82 0.0 0 1 750.08 538.58
  C 753.17 540.80 755.94 543.02 758.23 545.95
  A 0.87 0.86 -45.3 0 1 758.23 547.02
  Q 745.84 563.17 725.26 559.25
  Q 718.79 558.02 713.15 553.60
  C 701.59 544.53 697.57 529.48 703.37 515.89
  C 707.23 506.87 715.45 499.42 725.14 497.38
  Q 745.55 493.09 758.43 510.00
  A 0.79 0.78 50.6 0 1 758.33 511.06
  L 750.11 518.38
  A 0.81 0.80 46.8 0 1 749.00 518.34
  C 746.52 515.74 743.72 512.88 740.46 511.53
  C 733.08 508.46 724.21 510.28 718.81 516.19
  Z"
/>
<path fill="#ffffff" d="
  M 488.71 535.68
  Q 481.43 533.63 472.25 532.01
  C 464.05 530.55 453.44 526.56 452.58 516.77
  C 452.06 510.96 455.24 506.15 460.07 502.84
  C 471.68 494.88 489.01 497.09 501.36 501.79
  A 0.76 0.75 -69.9 0 1 501.80 502.75
  L 498.70 511.28
  A 0.88 0.88 0.0 0 1 497.71 511.85
  Q 495.11 511.38 489.77 510.00
  Q 479.19 507.26 469.42 510.07
  C 462.43 512.07 465.74 518.70 471.06 519.95
  C 480.59 522.20 492.27 523.27 500.69 528.60
  Q 508.43 533.50 506.63 544.27
  C 504.62 556.26 493.26 558.52 483.20 559.40
  Q 467.37 560.78 452.43 553.77
  A 0.65 0.65 0.0 0 1 452.15 552.87
  L 457.22 544.09
  A 1.14 1.13 29.1 0 1 458.74 543.66
  Q 472.65 551.07 488.66 547.37
  C 491.36 546.74 493.68 545.20 494.43 542.41
  C 495.60 538.06 492.33 536.69 488.71 535.68
  Z"
/>
<path fill="#ffffff" d="
  M 573.68 539.09
  A 0.43 0.43 0.0 0 0 574.49 539.02
  L 585.32 498.96
  A 0.87 0.85 2.5 0 1 586.02 498.33
  Q 591.65 497.46 597.31 498.34
  A 0.84 0.84 0.0 0 1 597.99 499.39
  L 581.88 557.17
  Q 581.72 557.76 581.11 557.76
  L 567.55 557.77
  A 0.68 0.66 81.9 0 1 566.91 557.28
  L 556.45 520.72
  A 0.42 0.42 0.0 0 0 555.64 520.72
  L 545.15 557.52
  A 0.72 0.70 -81.8 0 1 544.47 558.04
  L 531.10 558.04
  A 0.83 0.82 -7.8 0 1 530.30 557.44
  L 514.23 499.18
  A 0.74 0.74 0.0 0 1 514.86 498.25
  Q 520.54 497.57 526.20 498.46
  A 0.83 0.64 0.3 0 1 526.84 498.96
  L 537.89 539.74
  A 0.40 0.40 0.0 0 0 538.66 539.75
  L 550.62 499.16
  A 1.72 1.72 0.0 0 1 552.33 497.93
  L 560.12 498.22
  A 0.88 0.88 0.0 0 1 560.88 498.72
  Q 561.81 500.75 562.45 502.79
  Q 567.94 520.50 573.37 538.22
  Q 573.52 538.71 573.68 539.09
  Z"
/>
<path fill="#ffffff" d="
  M 785.15 521.98
  L 812.13 521.99
  A 0.45 0.45 0.0 0 0 812.58 521.54
  L 812.78 498.97
  A 0.45 0.45 0.0 0 1 813.23 498.52
  L 824.08 498.57
  A 0.45 0.45 0.0 0 1 824.53 499.02
  L 824.81 557.64
  A 0.45 0.45 0.0 0 1 824.36 558.09
  L 813.07 558.04
  A 0.45 0.45 0.0 0 1 812.62 557.59
  L 812.60 535.13
  A 0.45 0.45 0.0 0 0 812.15 534.68
  L 785.16 534.68
  A 0.45 0.45 0.0 0 0 784.71 535.13
  L 784.72 557.63
  A 0.45 0.45 0.0 0 1 784.27 558.08
  L 773.04 558.05
  A 0.45 0.45 0.0 0 1 772.59 557.60
  L 772.77 498.62
  A 0.45 0.45 0.0 0 1 773.22 498.17
  L 783.98 498.20
  A 0.45 0.45 0.0 0 1 784.43 498.64
  L 784.70 521.54
  A 0.45 0.45 0.0 0 0 785.15 521.98
  Z"
/>
<rect fill="#ffffff" x="613.34" y="498.26" width="13.26" height="59.80" rx="0.27"/>
<path fill="#ffffff" d="
  M 672.72 511.87
  L 672.74 557.63
  A 0.42 0.42 0.0 0 1 672.32 558.05
  L 660.43 558.06
  A 0.42 0.42 0.0 0 1 660.01 557.64
  L 660.01 511.88
  A 0.42 0.42 0.0 0 0 659.59 511.46
  L 641.77 511.46
  A 0.42 0.42 0.0 0 1 641.35 511.04
  L 641.34 498.80
  A 0.42 0.42 0.0 0 1 641.76 498.38
  L 690.73 498.20
  A 0.42 0.42 0.0 0 1 691.15 498.61
  L 691.43 511.02
  A 0.42 0.42 0.0 0 1 691.01 511.45
  L 673.14 511.45
  A 0.42 0.42 0.0 0 0 672.72 511.87
  Z"
/>
</svg>
